<svg width="763" height="858" viewBox="0 0 763 858" fill="none" xmlns="http://www.w3.org/2000/svg">
<rect x="-7" width="720" height="858" fill="#FD7401"/>
<path d="M724.13 645.263H-1.63745V645.626H724.13V645.263Z" fill="#BA4A00"/>
<path d="M456.564 655.153H419.609V655.516H456.564V655.153Z" fill="#BA4A00"/>
<path d="M659.455 663.011H571.88V663.374H659.455V663.011Z" fill="#BA4A00"/>
<path d="M411.748 655.334H321.27V655.697H411.748V655.334Z" fill="#BA4A00"/>
<path d="M262.601 666.199H243.672V666.562H262.601V666.199Z" fill="#BA4A00"/>
<path d="M367.174 666.199H280.988V666.562H367.174V666.199Z" fill="#BA4A00"/>
<path d="M130.326 660.067H74.5085V660.43H130.326V660.067Z" fill="#BA4A00"/>
<path d="M282.808 519.305H186.425L180.573 451.774H276.957L282.808 519.305Z" fill="#E6E6E6"/>
<path d="M287.8 519.305H191.418L185.567 451.774H281.949L287.8 519.305Z" fill="#F0F0F0"/>
<path d="M204.592 504.803L201.379 466.275H268.773L271.986 504.803H204.592Z" fill="white"/>
<path d="M308.045 519.304H198.586V533.206H308.045V519.304Z" fill="#F0F0F0"/>
<path d="M173.973 488.25V491.761H171.727L169.872 519.305H142.532L140.678 491.761H138.431V488.25H173.973Z" fill="#E6E6E6"/>
<path d="M151.324 457.085C151.792 450.337 162.562 437.936 188.464 443.573C207.195 447.65 214.158 437.936 214.158 437.936C214.158 437.936 212.423 465.353 184.255 473.596C157.506 481.424 150.498 468.953 151.324 457.085Z" fill="#E6E6E6"/>
<path d="M157.233 498.591C157.516 498.591 157.798 498.471 157.996 498.237C159.875 496.016 158.338 490.7 156.213 483.34C153.484 473.894 150.089 462.141 152.964 453.604C154.587 448.786 156.596 444.538 158.536 440.428C162.602 431.824 166.114 424.395 163.184 416.635C162.99 416.118 162.413 415.858 161.897 416.053C161.382 416.248 161.12 416.824 161.315 417.341C163.944 424.306 160.76 431.043 156.729 439.572C154.854 443.539 152.73 448.035 151.07 452.964C147.994 462.093 151.486 474.18 154.292 483.893C155.947 489.621 157.657 495.542 156.471 496.945C156.115 497.366 156.167 497.996 156.589 498.353C156.776 498.513 157.005 498.591 157.233 498.591Z" fill="#E6E6E6"/>
<path d="M581.656 343.074C571.797 421.81 502.841 500.428 427.02 551.062C231.002 682.951 41.6184 459.147 89.4058 378.765C125.277 297.229 237.15 319.627 284.743 287.574C552.248 106.149 590.937 277.178 581.656 343.074Z" fill="#407BFF"/>
<path d="M581.656 343.074C571.797 421.81 502.841 500.428 427.02 551.062C231.002 682.951 41.6184 459.147 89.4058 378.765C125.277 297.229 237.15 319.627 284.743 287.574C552.248 106.149 590.937 277.178 581.656 343.074Z" fill="#FFA061" fill-opacity="0.901961"/>
<path d="M361.246 710.852C516.679 710.852 642.683 703.49 642.683 694.408C642.683 685.326 516.679 677.964 361.246 677.964C205.813 677.964 79.8096 685.326 79.8096 694.408C79.8096 703.49 205.813 710.852 361.246 710.852Z" fill="#FFA061"/>
<path d="M361.188 614.256H155.07L143.789 282.604H349.907L361.188 614.256Z" fill="#BA4A00"/>
<path d="M371.475 603.964H165.357L154.075 272.312H360.193L371.475 603.964Z" fill="#FF6600"/>
<path d="M371.475 603.964H165.357L154.075 272.312H360.193L371.475 603.964Z" fill="white" fill-opacity="0.301961"/>
<path d="M302.433 408.806C324.504 386.346 323.568 349.617 300.342 326.77C277.116 303.923 240.395 303.61 218.324 326.07C196.253 348.53 197.19 385.259 220.416 408.106C243.642 430.953 280.363 431.266 302.433 408.806Z" fill="#FF6600"/>
<path d="M308.22 367.429C308.501 375.697 306.67 383.459 303.214 390.234C295.65 405.156 280.19 415.305 261.997 415.305C243.807 415.305 227.655 405.156 219.075 390.234C215.159 383.461 212.799 375.698 212.517 367.429C211.617 340.983 232.309 319.553 258.74 319.553C285.171 319.553 307.32 340.983 308.22 367.429Z" fill="white"/>
<path d="M303.212 390.234C295.648 405.156 280.188 415.305 261.996 415.305C243.805 415.305 227.654 405.156 219.074 390.234C230.847 382.183 245.143 377.481 260.708 377.481C276.276 377.481 290.892 382.181 303.212 390.234Z" fill="#FF6600" fill-opacity="0.6"/>
<path d="M274.514 336.099C265.975 327.699 252.475 327.584 244.361 335.841C236.246 344.098 236.591 357.601 245.13 366.001C253.669 374.401 267.168 374.516 275.283 366.258C283.397 358.001 283.053 344.498 274.514 336.099Z" fill="#FF6600" fill-opacity="0.6"/>
<path d="M330.073 483.861H198.587L197.698 457.72H329.185L330.073 483.861Z" fill="white"/>
<path d="M331.664 530.585H200.177L199.287 504.444H330.774L331.664 530.585Z" fill="white"/>
<path d="M280.915 508.037L249.23 512.347C247.928 512.524 247.072 513.711 247.318 514.971L251.478 536.215C251.726 537.485 252.991 538.373 254.292 538.198L285.978 533.887C287.28 533.71 288.138 532.532 287.89 531.263L283.73 510.019C283.483 508.757 282.217 507.86 280.915 508.037ZM271.811 529.558L266.075 530.34L265.497 523.484C264.277 522.945 263.392 521.861 263.143 520.585C262.737 518.508 264.138 516.584 266.268 516.293C268.39 516.004 270.453 517.458 270.861 519.535C271.11 520.811 270.685 522.072 269.734 522.907L271.811 529.558Z" fill="#FF6600"/>
<path d="M277.789 506.899C276.63 507.055 275.513 506.268 275.292 505.14L274.884 503.06C273.763 497.337 268.294 493.016 262.373 493.532C256.044 494.084 251.802 499.675 252.986 505.722L253.453 508.111C253.674 509.24 252.915 510.283 251.757 510.439C250.598 510.596 249.481 509.809 249.26 508.681L248.864 506.653C247.302 498.677 252.32 491.009 260.438 489.596C268.973 488.109 277.39 493.869 279.017 502.18L279.484 504.569C279.705 505.697 278.945 506.74 277.789 506.899Z" fill="#FF6600"/>
<path d="M309.959 567.19H224.371L223.793 550.173H309.38L309.959 567.19Z" fill="#FF6600"/>
<path d="M268.664 470.79C268.754 473.431 266.687 475.571 264.049 475.571C261.41 475.571 259.198 473.431 259.108 470.79C259.018 468.15 261.084 466.009 263.723 466.009C266.362 466.009 268.575 468.15 268.664 470.79Z" fill="#263238"/>
<path d="M248.092 470.79C248.182 473.431 246.115 475.571 243.476 475.571C240.837 475.571 238.625 473.431 238.535 470.79C238.445 468.15 240.512 466.009 243.151 466.009C245.79 466.009 248.002 468.15 248.092 470.79Z" fill="#263238"/>
<path d="M227.519 470.79C227.609 473.431 225.542 475.571 222.903 475.571C220.265 475.571 218.052 473.431 217.962 470.79C217.873 468.15 219.939 466.009 222.578 466.009C225.217 466.009 227.429 468.15 227.519 470.79Z" fill="#263238"/>
<path d="M289.237 470.79C289.327 473.431 287.26 475.571 284.621 475.571C281.982 475.571 279.77 473.431 279.68 470.79C279.59 468.15 281.657 466.009 284.296 466.009C286.935 466.009 289.147 468.15 289.237 470.79Z" fill="#263238"/>
<path d="M309.81 470.79C309.9 473.431 307.833 475.571 305.194 475.571C302.555 475.571 300.343 473.431 300.253 470.79C300.163 468.15 302.23 466.009 304.869 466.009C307.507 466.009 309.721 468.15 309.81 470.79Z" fill="#263238"/>
<path d="M483.044 343.019C484.979 346.12 486.579 349.095 488.24 352.184C489.893 355.243 491.388 358.39 492.855 361.56C495.742 367.926 498.326 374.493 500.257 381.502C500.515 382.362 500.713 383.274 500.927 384.166L501.245 385.51L501.403 386.181L501.592 387.287C502.007 390.238 501.643 392.645 501.139 394.768C500.098 399 498.421 402.375 496.622 405.596C492.951 411.973 488.666 417.405 483.724 422.548L477.611 417.918C480.625 412.197 483.604 406.202 485.794 400.437C486.855 397.571 487.747 394.653 488.009 392.258C488.135 391.081 488.051 390.068 487.888 389.692L487.315 387.917C487.077 387.188 486.865 386.464 486.577 385.729C484.486 379.869 481.825 373.983 478.929 368.179C476.074 362.398 472.91 356.512 469.795 351.018L483.044 343.019Z" fill="#FF8B7B"/>
<path d="M479.163 415.842L472.499 419.381L480.16 428.356C480.16 428.356 484.943 425.119 485.159 420.175L479.163 415.842Z" fill="#FF8B7B"/>
<path d="M463.53 424.916L471.74 431.432L480.16 428.358L472.497 419.383L463.53 424.916Z" fill="#FF8B7B"/>
<path d="M435.493 295.505C435.329 296.312 434.769 296.88 434.241 296.773C433.714 296.665 433.419 295.924 433.583 295.117C433.747 294.309 434.308 293.742 434.836 293.849C435.363 293.957 435.658 294.699 435.493 295.505Z" fill="#263238"/>
<path d="M434.843 296.896C434.843 296.896 432.062 301.18 429.586 303.017C430.743 304.641 433.294 304.525 433.294 304.525L434.843 296.896Z" fill="#FF5652"/>
<path d="M432.228 325.384L432.29 315.866L444.889 317.389C444.889 317.389 444.673 325.574 437.637 327.981L432.228 325.384Z" fill="#FF8B7B"/>
<path d="M435.849 309.011L444.721 311.561L444.891 317.389L432.29 315.866L435.849 309.011Z" fill="#FF8B7B"/>
<path d="M444.724 311.561L435.855 309.005L434.128 312.316C434.345 317.936 437.771 322.555 442.314 324.631C444.782 321.393 444.884 317.384 444.884 317.384L444.724 311.561Z" fill="black" fill-opacity="0.2"/>
<path d="M439.359 291.623C439.477 291.623 439.594 291.581 439.687 291.493C439.883 291.312 439.895 291.006 439.713 290.809C437.897 288.843 435.694 289.193 435.598 289.209C435.335 289.254 435.158 289.504 435.203 289.767C435.248 290.03 435.501 290.205 435.759 290.163C435.832 290.151 437.554 289.899 439.003 291.467C439.099 291.57 439.229 291.623 439.359 291.623Z" fill="#263238"/>
<path d="M457.905 310.2C456.441 317.674 455.557 328.027 460.782 333.014C460.782 333.014 458.74 340.595 444.862 340.595C429.6 340.595 437.52 333.942 437.52 333.942C443.863 331.973 443.808 324.743 442.356 318.936L457.905 310.2Z" fill="#FF8B7B"/>
<path d="M463.64 338.011C464.999 336.086 464.945 330.002 463.494 328.929C461.151 327.196 451.131 326.798 437.634 329.903C439.087 335.797 435.974 338.886 435.974 338.886L463.64 338.011Z" fill="#FF6600"/>
<path d="M509.005 682.788C507.98 683.01 506.957 683.068 506.464 682.648C506.256 682.471 506.048 682.135 506.23 681.524C506.326 681.203 506.535 680.964 506.853 680.813C508.232 680.155 511.399 681.446 511.534 681.501C511.622 681.537 511.68 681.622 511.683 681.718C511.687 681.813 511.633 681.901 511.547 681.943C511.062 682.176 510.034 682.566 509.005 682.788ZM507.344 681.156C507.24 681.179 507.146 681.209 507.061 681.25C506.87 681.342 506.749 681.477 506.694 681.663C506.565 682.098 506.726 682.235 506.78 682.28C507.328 682.747 509.368 682.316 510.803 681.741C509.828 681.398 508.252 680.96 507.344 681.156Z" fill="#407BFF"/>
<path d="M511.493 681.962C511.454 681.971 511.414 681.969 511.374 681.957C510.22 681.62 507.751 679.865 507.721 678.707C507.715 678.496 507.789 678.116 508.339 677.924C508.696 677.799 509.056 677.828 509.41 678.01C510.775 678.707 511.637 681.536 511.673 681.657C511.7 681.743 511.676 681.834 511.614 681.896C511.579 681.93 511.538 681.951 511.493 681.962ZM508.603 678.351C508.568 678.358 508.532 678.369 508.497 678.381C508.198 678.485 508.202 678.632 508.204 678.694C508.221 679.38 509.852 680.756 511.046 681.314C510.747 680.498 510.065 678.887 509.191 678.441C508.991 678.338 508.798 678.309 508.603 678.351Z" fill="#407BFF"/>
<path d="M433.627 684.502C432.316 684.502 431.05 684.322 430.626 683.732C430.478 683.526 430.361 683.175 430.647 682.675C430.806 682.395 431.065 682.204 431.413 682.109C433.113 681.647 436.681 683.68 436.832 683.767C436.919 683.818 436.965 683.917 436.949 684.016C436.934 684.114 436.856 684.194 436.758 684.215C436.106 684.345 434.848 684.502 433.627 684.502ZM432.007 682.521C431.837 682.521 431.679 682.538 431.54 682.576C431.316 682.637 431.162 682.748 431.067 682.915C430.895 683.215 430.958 683.365 431.02 683.449C431.495 684.11 434.076 684.124 435.974 683.856C435.026 683.371 433.2 682.521 432.007 682.521Z" fill="#407BFF"/>
<path d="M436.71 684.22C436.677 684.22 436.643 684.213 436.611 684.198C435.379 683.645 432.937 681.436 433.125 680.28C433.168 680.009 433.361 679.672 434.025 679.603C434.521 679.553 434.969 679.693 435.366 680.019C436.665 681.086 436.94 683.837 436.951 683.954C436.96 684.04 436.92 684.124 436.851 684.174C436.81 684.204 436.759 684.22 436.71 684.22ZM434.219 680.078C434.171 680.078 434.123 680.081 434.074 680.085C433.638 680.129 433.611 680.3 433.602 680.357C433.49 681.05 435.148 682.786 436.406 683.542C436.276 682.738 435.912 681.092 435.059 680.392C434.803 680.183 434.525 680.078 434.219 680.078Z" fill="#407BFF"/>
<path d="M447.938 683.978H437.727L436.711 660.323H446.92L447.938 683.978Z" fill="#FF8B7B"/>
<path d="M522.873 679.249L512.895 681.41L502.877 659.377L512.855 657.215L522.873 679.249Z" fill="#FF8B7B"/>
<path d="M511.936 680.408L523.146 677.979C523.554 677.891 523.969 678.099 524.143 678.478L528.035 686.926C528.438 687.801 527.904 688.83 526.958 689.017C523.03 689.797 521.079 689.98 516.148 691.047C513.114 691.703 506.267 693.374 502.08 694.28C497.983 695.167 496.448 691.162 498.081 690.415C505.405 687.068 508.465 684.119 510.448 681.372C510.806 680.877 511.339 680.537 511.936 680.408Z" fill="#263238"/>
<path d="M437.794 682.795H448.944C449.362 682.795 449.722 683.086 449.813 683.492L451.83 692.572C452.038 693.513 451.324 694.405 450.361 694.389C446.338 694.321 440.526 694.084 435.472 694.084C429.562 694.084 424.456 694.406 417.524 694.406C413.332 694.406 412.169 690.167 413.924 689.782C421.912 688.033 428.433 687.846 435.335 683.589C436.086 683.128 436.913 682.795 437.794 682.795Z" fill="#263238"/>
<path d="M479.063 335.323C488.632 337.518 496.522 361.959 496.522 361.959L477.307 376.613C477.307 376.613 470.253 369.96 467.115 357.735C463.825 344.924 469.278 333.079 479.063 335.323Z" fill="#407BFF"/>
<path d="M479.063 335.323C488.632 337.518 496.522 361.959 496.522 361.959L477.307 376.613C477.307 376.613 470.253 369.96 467.115 357.735C463.825 344.924 469.278 333.079 479.063 335.323Z" fill="#BA4A00" fill-opacity="0.4"/>
<path d="M428.745 364.492C426.358 367.07 423.977 369.363 421.511 371.723C420.287 372.897 419.036 374.047 417.757 375.175L415.83 376.865L415.345 377.284C415.109 377.486 414.823 377.726 414.517 377.96C413.879 378.432 413.179 378.982 411.713 379.617C410.936 379.916 409.938 380.312 408.183 380.347C407.348 380.36 406.216 380.215 405.134 379.805C404.03 379.396 402.961 378.687 402.23 377.958C400.712 376.432 400.253 375.093 399.954 374.197C399.677 373.273 399.597 372.614 399.54 372.037C399.449 370.911 399.507 370.148 399.569 369.442C399.638 368.745 399.734 368.142 399.839 367.573C400.266 365.334 400.87 363.527 401.524 361.718C402.188 359.927 402.922 358.208 403.78 356.469C404.702 354.619 405.592 353.277 406.479 351.73C410.066 345.733 414.275 340.254 418.747 335.092C423.316 329.964 428.113 325.275 433.627 320.98L438.97 326.479C435.216 331.503 431.526 336.886 428.117 342.196C424.71 347.545 421.55 352.991 418.83 358.528C418.203 359.897 417.429 361.395 416.994 362.539C416.484 363.79 416.017 365.133 415.632 366.456C415.252 367.763 414.946 369.126 414.808 370.124C414.776 370.365 414.76 370.576 414.76 370.698C414.755 370.81 414.785 370.873 414.77 370.563C414.755 370.395 414.74 370.144 414.583 369.612C414.406 369.107 414.13 368.15 412.908 366.912C412.318 366.333 411.433 365.726 410.516 365.397C409.629 365.05 408.702 364.948 408.071 364.952C406.729 364.982 406.129 365.256 405.732 365.399C405.02 365.706 405.006 365.789 405.013 365.758L405.571 365.249L407.314 363.652L410.784 360.4C413.08 358.235 415.392 355.925 417.573 353.782L428.745 364.492Z" fill="#FF8B7B"/>
<path d="M470.862 353.297C476.06 358.442 477.755 367.814 478.159 375.961L477.311 376.614C477.311 376.614 470.251 369.954 467.11 357.732C466.915 356.968 466.748 356.202 466.609 355.451L470.862 353.297Z" fill="black" fill-opacity="0.2"/>
<path d="M418.593 345.566C416.506 356.602 415.199 379.264 421.26 424.142H475.868C476.244 415.755 470.976 374.841 479.063 335.323C479.063 335.323 469.702 333.444 460.782 333.014C453.804 332.677 443.702 332.455 437.568 333.015C435.007 333.249 432.494 333.62 430.255 334.016C424.35 335.06 419.708 339.671 418.593 345.566Z" fill="#407BFF"/>
<path d="M418.593 345.566C416.506 356.602 415.199 379.264 421.26 424.142H475.868C476.244 415.755 470.976 374.841 479.063 335.323C479.063 335.323 469.702 333.444 460.782 333.014C453.804 332.677 443.702 332.455 437.568 333.015C435.007 333.249 432.494 333.62 430.255 334.016C424.35 335.06 419.708 339.671 418.593 345.566Z" fill="#FF6600" fill-opacity="0.4"/>
<path d="M426.95 361.877L417.082 359.512C416.776 365.491 416.749 372.902 417.194 382.066C421.739 376.893 427.534 368.829 426.95 361.877Z" fill="black" fill-opacity="0.2"/>
<path d="M436.713 660.328L437.235 672.522H447.45L446.928 660.328H436.713Z" fill="black" fill-opacity="0.2"/>
<path d="M512.86 657.221L502.877 659.383L508.046 670.74L518.029 668.578L512.86 657.221Z" fill="black" fill-opacity="0.2"/>
<path d="M462.758 299.267C460.135 309.06 459.097 314.925 453.057 318.997C443.972 325.121 432.662 318.092 432.308 307.712C431.99 298.37 436.333 283.926 446.834 281.952C457.182 280.009 465.381 289.475 462.758 299.267Z" fill="#FF8B7B"/>
<path d="M439.842 299.644C439.357 298.331 437.096 288.212 439.218 285.584C441.342 282.957 465.507 284.846 469.081 288.365C475.009 294.202 470.896 299.411 464.407 306.132C459.525 311.186 459.338 316.884 456.876 317.719C452.562 319.184 445.872 317.808 444.531 313.199C443.19 308.593 439.842 299.644 439.842 299.644Z" fill="#263238"/>
<path d="M466.154 276.855C457.612 273.215 441.599 277.241 432.951 275.155C432.641 279.635 435.344 286.82 443.991 288.751C443.991 288.751 456.267 291.146 465.764 290.76C475.261 290.374 473.408 279.945 466.154 276.855Z" fill="#263238"/>
<path d="M467.49 288.675C467.49 288.675 472.772 289.27 476.521 286.941C478.125 290.802 469.345 291.863 467.49 288.675Z" fill="#263238"/>
<path d="M444.498 300.046C444.339 302.696 443.11 305.19 441.63 306.822C439.404 309.275 437.082 307.749 436.687 304.76C436.331 302.07 437.061 297.552 439.783 296.2C442.464 294.866 444.678 297.015 444.498 300.046Z" fill="#FF8B7B"/>
<path d="M440.631 424.142C440.631 424.142 452.217 502.206 458.579 531.452C465.545 563.479 502.896 669.439 502.896 669.439L521.172 665.48C521.172 665.48 495.054 579.13 489.207 534.355C484.716 499.962 475.868 424.142 475.868 424.142H440.631Z" fill="#FF6600"/>
<path d="M498.519 663.335C498.441 663.352 501.926 669.947 501.926 669.947L522.488 665.493L520.755 659.308L498.519 663.335Z" fill="#263238"/>
<path d="M447.954 451.956C461.351 454.584 459.933 504.572 458.322 530.281C454.458 512.107 448.803 477.137 444.939 452.317C445.827 451.873 446.829 451.733 447.954 451.956Z" fill="#BA4A00" fill-opacity="0.301961"/>
<path d="M421.26 424.142C421.26 424.142 419.854 500.517 420.964 531.667C422.119 564.069 433.431 670.161 433.431 670.161H450.726C450.726 670.161 451.36 565.963 452.13 534.14C452.969 499.45 457.155 424.142 457.155 424.142H421.26Z" fill="#FF6600"/>
<path d="M430.102 663.268C430.023 663.268 431.078 670.452 431.078 670.452H452.117L452.686 664.041L430.102 663.268Z" fill="#263238"/>
<path d="M439.995 348.917C444.891 362.116 416.129 377.665 416.129 377.665L403.677 361.649C403.677 361.649 411.985 345.108 422.179 337.65C434.771 328.438 436.268 338.868 439.995 348.917Z" fill="#407BFF"/>
<path d="M439.995 348.917C444.891 362.116 416.129 377.665 416.129 377.665L403.677 361.649C403.677 361.649 411.985 345.108 422.179 337.65C434.771 328.438 436.268 338.868 439.995 348.917Z" fill="#BA4A00" fill-opacity="0.4"/>
<path d="M552.667 248.696C581.597 248.696 605.049 233.742 605.049 215.294C605.049 196.846 581.597 181.892 552.667 181.892C523.738 181.892 500.286 196.846 500.286 215.294C500.286 233.742 523.738 248.696 552.667 248.696Z" fill="#BA4A00"/>
<path d="M533.755 232.107C530.845 232.107 528.004 231.236 525.537 229.552C522.227 227.295 520.028 223.874 519.345 219.918C518.041 212.356 523.061 204.821 530.535 203.122C536.689 201.727 542.94 204.351 546.245 209.682L579.873 202.739C582.597 202.177 585.365 203.802 586.036 206.365C586.391 207.727 586.181 209.135 585.441 210.328C584.699 211.522 583.535 212.334 582.16 212.619L581.277 212.802C581.013 212.855 580.799 213.015 580.671 213.25C580.543 213.483 580.524 213.758 580.62 214.004L581.212 215.546C581.614 216.59 581.24 217.766 580.318 218.339C579.601 218.786 579.113 219.553 579.016 220.392C578.897 221.42 578.211 222.212 577.268 222.407L576.576 222.549C575.637 222.74 574.693 222.29 574.175 221.393C573.568 220.344 572.364 219.804 571.173 220.051C569.979 220.298 569.08 221.272 568.935 222.476C568.812 223.506 568.125 224.296 567.186 224.489L566.508 224.628C565.578 224.822 564.626 224.369 564.107 223.472C563.682 222.74 562.927 222.229 562.087 222.104C561.014 221.944 560.203 221.015 560.158 219.894L560.091 218.243C560.081 217.974 559.959 217.736 559.748 217.572C559.538 217.406 559.285 217.347 559.012 217.399L548.297 219.613C547.388 225.688 542.812 230.551 536.756 231.802C535.756 232.004 534.751 232.107 533.755 232.107ZM530.855 204.539C524.121 206.069 519.6 212.859 520.777 219.671C521.391 223.237 523.372 226.319 526.355 228.353C529.338 230.388 532.927 231.107 536.464 230.376C542.074 229.217 546.279 224.614 546.924 218.92L546.983 218.398L558.719 215.974C559.397 215.833 560.098 215.999 560.642 216.425C561.186 216.851 561.513 217.492 561.542 218.183L561.609 219.834C561.625 220.252 561.922 220.611 562.3 220.666C563.593 220.859 564.708 221.616 565.362 222.743C565.522 223.019 565.826 223.284 566.216 223.204L566.894 223.065C567.279 222.985 567.457 222.619 567.495 222.302C567.711 220.478 569.073 219.002 570.881 218.628C572.684 218.257 574.511 219.075 575.432 220.665C575.592 220.94 575.894 221.209 576.284 221.126L576.978 220.984C577.362 220.904 577.539 220.54 577.574 220.225C577.725 218.929 578.448 217.794 579.554 217.107C579.88 216.905 580.009 216.459 579.859 216.07L579.267 214.526C579.019 213.88 579.067 213.162 579.399 212.555C579.731 211.95 580.309 211.521 580.987 211.382L581.869 211.199C582.85 210.997 583.681 210.416 584.209 209.567C584.737 208.715 584.888 207.71 584.634 206.738C584.155 204.911 582.148 203.755 580.167 204.167L545.52 211.321L545.259 210.865C542.351 205.783 536.571 203.239 530.855 204.539ZM533.774 226.738C531.977 226.738 530.219 226.215 528.682 225.204C526.607 223.838 525.188 221.746 524.688 219.314C524.184 216.877 524.658 214.392 526.024 212.318C527.389 210.246 529.481 208.828 531.914 208.326C534.349 207.822 536.833 208.295 538.904 209.659C540.975 211.021 542.392 213.115 542.894 215.554C543.398 217.986 542.923 220.47 541.562 222.544C540.199 224.62 538.105 226.041 535.668 226.543C535.038 226.674 534.404 226.738 533.774 226.738ZM533.818 209.582C533.282 209.582 532.744 209.637 532.206 209.748C530.154 210.172 528.389 211.368 527.238 213.117C526.087 214.867 525.687 216.963 526.11 219.021C526.534 221.073 527.73 222.837 529.482 223.99C531.232 225.142 533.327 225.544 535.379 225.12C537.435 224.696 539.2 223.496 540.351 221.745C541.501 219.995 541.9 217.901 541.476 215.846C541.051 213.788 539.856 212.021 538.108 210.871C536.815 210.023 535.333 209.582 533.818 209.582Z" fill="white"/>
<path d="M527.238 257.301C527.238 251.237 519.53 246.322 510.021 246.322C500.513 246.322 492.805 251.237 492.805 257.301C492.805 263.364 500.513 268.28 510.021 268.28C519.53 268.28 527.238 263.364 527.238 257.301Z" fill="white" fill-opacity="0.6"/>
<path d="M489.704 268.279C489.704 265.79 486.54 263.772 482.637 263.772C478.733 263.772 475.569 265.79 475.569 268.279C475.569 270.768 478.733 272.785 482.637 272.785C486.54 272.785 489.704 270.768 489.704 268.279Z" fill="white" fill-opacity="0.301961"/>
</svg>
